Coordinates
version=1
nRows=11
nColumns=63
inDegrees=yes

Units are S.I. units (second, meters, Newtons, ...)
If the header above contains a line with 'inDegrees', this indicates whether rotational values are in degrees (yes) or radians (no).

endheader
time	pelvis_tilt	pelvis_list	pelvis_rotation	pelvis_tx	pelvis_ty	pelvis_tz	hip_flexion_r	hip_adduction_r	hip_rotation_r	knee_angle_r	knee_angle_r_beta	ankle_angle_r	subtalar_angle_r	mtp_angle_r	hip_flexion_l	hip_adduction_l	hip_rotation_l	knee_angle_l	knee_angle_l_beta	ankle_angle_l	subtalar_angle_l	mtp_angle_l	L5_S1_Flex_Ext	L5_S1_Lat_Bending	L5_S1_axial_rotation	L4_L5_Flex_Ext	L4_L5_Lat_Bending	L4_L5_axial_rotation	L3_L4_Flex_Ext	L3_L4_Lat_Bending	L3_L4_axial_rotation	L2_L3_Flex_Ext	L2_L3_Lat_Bending	L2_L3_axial_rotation	L1_L2_Flex_Ext	L1_L2_Lat_Bending	L1_L2_axial_rotation	L1_T12_Flex_Ext	L1_T12_Lat_Bending	L1_T12_axial_rotation	Abs_r3	Abs_r2	Abs_r1	Abs_t1	Abs_t2	neck_flexion	neck_bending	neck_rotation	arm_flex_r	arm_add_r	arm_rot_r	elbow_flex_r	pro_sup_r	wrist_flex_r	wrist_dev_r	arm_flex_l	arm_add_l	arm_rot_l	elbow_flex_l	pro_sup_l	wrist_flex_l	wrist_dev_l
      5.25000000	     -1.14869343	     -6.73256633	     92.58365894	      0.17898352	      0.97675051	      0.30648018	     -3.13457090	     -2.17236979	     -1.85518695	      2.47246121	      0.04315259	     22.14760204	      1.32515731	      0.00000000	     -2.87420208	     -0.21716232	    -10.92819055	      1.64457984	      0.02870333	     20.26011856	     14.50491342	      0.00000000	      0.00629164	     -0.47405675	     -0.11635981	      0.01168420	     -0.63049548	     -0.12363230	      0.01033653	     -1.15262159	     -0.12363230	      0.00719071	     -1.15262159	     -0.10181484	      0.00584241	     -0.96669653	     -0.09454235	      0.00359504	     -0.73431391	     -0.08726986	      0.04494052	     -5.36262481	     -0.64715838	      0.00000000	      0.00000000	     20.65997674	      2.54883798	    -17.58575842	      1.94479027	    -25.82532140	     33.10471810	    143.32563777	     78.13729331	     20.19695314	     16.58058066	     13.76490361	    -12.53668003	    153.09870937	      8.56639908	     12.85266522	     -2.89220423	     -6.56850645
      5.26666667	     -1.30326382	     -6.61192715	     92.77166077	      0.17869139	      0.97686059	      0.30586714	     -3.27954424	     -2.35581731	     -2.84189381	      2.65375394	      0.04631674	     22.52687941	      2.42489341	      0.00000000	     -3.05649778	     -0.04680169	    -10.29636518	      1.55729210	      0.02717987	     20.17782069	     13.89765516	      0.00000000	      0.00782969	     -0.49645423	     -0.15496102	      0.01454052	     -0.66028412	     -0.16464608	      0.01286340	     -1.20707881	     -0.16464608	      0.00894856	     -1.20707881	     -0.13559089	      0.00727065	     -1.01236946	     -0.12590583	      0.00447389	     -0.76900760	     -0.11622076	      0.05592671	     -5.61598950	     -0.86184668	      0.00000000	      0.00000000	     20.51467723	      2.76943427	    -17.91085077	      1.32066951	    -25.47454083	     32.42460989	    143.26825704	     80.51570020	     20.96811724	     15.28425917	     13.55674506	    -12.67736172	    152.61462747	      8.65129368	     14.10004436	     -2.85179051	     -6.25613401
      5.28333333	     -1.48479678	     -6.46826651	     92.97523655	      0.17815926	      0.97692272	      0.30529066	     -3.39689789	     -2.63783269	     -5.52885120	      3.02325373	      0.05276573	     23.28054960	      5.85230407	      0.00000000	     -3.22920829	      0.14378405	    -10.43278230	      1.55540665	      0.02714697	     20.12637238	     14.38056222	      0.00000000	      0.00731158	     -0.51424188	     -0.20608876	      0.01357834	     -0.68394170	     -0.21896931	      0.01201220	     -1.25032771	     -0.21896931	      0.00835641	     -1.25032771	     -0.18032767	      0.00678954	     -1.04864204	     -0.16744712	      0.00417784	     -0.79656067	     -0.15456657	      0.05222591	     -5.81720700	     -1.14620386	      0.00000000	      0.00000000	     20.35325621	      2.87275511	    -17.79540698	      1.01907158	    -25.29718376	     31.90948908	    143.25666236	     83.07136897	     21.69452051	     13.75954636	     13.31490034	    -12.46695048	    157.72466797	      8.27119111	     10.47856321	     -2.45928595	     -6.15069741
      5.30000000	     -1.65133900	     -6.33480061	     93.58206967	      0.17712524	      0.97695771	      0.30448872	     -3.69930410	     -2.81494371	     -6.80125725	      3.09890982	      0.05408618	     23.41358334	      6.75040477	      0.00000000	     -3.38041244	      0.30673190	     -9.57667895	      1.51895962	      0.02651085	     19.89661163	     14.04051975	      0.00000000	      0.01309350	     -0.53292270	     -0.33051652	      0.02431594	     -0.70878719	     -0.35117380	      0.02151132	     -1.29574826	     -0.35117380	      0.01496456	     -1.29574826	     -0.28920196	      0.01215863	     -1.08673598	     -0.26854467	      0.00748163	     -0.82549727	     -0.24788739	      0.09352558	     -6.02852820	     -1.83823373	      0.00000000	      0.00000000	     20.14378155	      3.02257512	    -17.59357129	      0.78765128	    -25.10584587	     31.24917953	    143.35697260	     85.14628311	     22.95004549	     12.71847879	     13.02135865	    -12.68431873	    155.92150790	      8.52560000	     11.82839001	     -1.89183970	     -5.70387470
      5.31666667	     -1.82411554	     -6.15228909	     93.90673904	      0.17625771	      0.97713836	      0.30362506	     -4.00923357	     -3.02139458	     -7.73751660	      3.18884037	      0.05565576	     23.43550091	      7.60487286	      0.00000000	     -3.63449906	      0.50153248	     -9.22454863	      1.43426333	      0.02503262	     19.64441020	     13.95977963	      0.00000000	      0.01211352	     -0.55050212	     -0.40444301	      0.02249602	     -0.73216782	     -0.42972070	      0.01990131	     -1.33849085	     -0.42972070	      0.01384455	     -1.33849085	     -0.35388764	      0.01124862	     -1.12258392	     -0.32860995	      0.00692167	     -0.85272778	     -0.30333226	      0.08652569	     -6.22739007	     -2.24939071	      0.00000000	      0.00000000	     19.87802652	      3.08880382	    -17.47107599	      0.72367637	    -25.15529352	     30.77760664	    143.38513012	     86.56327245	     24.00504093	     11.01897836	     12.74979752	    -12.85022011	    154.63740758	      8.81134772	     12.05441543	     -1.33756824	     -5.13674149
      5.33333333	     -1.93244716	     -5.90825778	     94.10686886	      0.17548201	      0.97743089	      0.30251257	     -4.45384203	     -3.12517389	     -7.53086853	      3.10909997	      0.05426403	     23.04351493	      7.09301841	      0.00000000	     -3.98558713	      0.63764023	     -9.30863060	      1.34060141	      0.02339791	     19.45582170	     14.23385948	      0.00000000	      0.00301192	     -0.55256669	     -0.46654021	      0.00559345	     -0.73491369	     -0.49569898	      0.00494829	     -1.34351064	     -0.49569898	      0.00344233	     -1.34351064	     -0.40822269	      0.00279687	     -1.12679399	     -0.37906392	      0.00172101	     -0.85592580	     -0.34990516	      0.02151388	     -6.25074488	     -2.59475671	      0.00000000	      0.00000000	     19.65803232	      3.15267294	    -16.85696989	      0.77214846	    -25.35008237	     30.66281191	    143.76064968	     87.05799537	     23.99062329	     10.84428263	     12.47082337	    -13.01278463	    152.40013427	      9.25331355	     14.66978280	     -1.86088482	     -4.88089633
      5.35000000	     -2.07401091	     -5.79642191	     94.58251929	      0.17445171	      0.97779132	      0.30129522	     -4.83004386	     -3.24762228	     -7.76732165	      3.03769531	      0.05301778	     22.66850565	      6.78229193	      0.00000000	     -4.15335105	      0.77597944	     -9.22738486	      1.33497122	      0.02329964	     19.30483029	     14.66518120	      0.00000000	      0.00877803	     -0.56448567	     -0.56438943	      0.01630167	     -0.75076594	     -0.59966377	      0.01442142	     -1.37249046	     -0.59966377	      0.01003241	     -1.37249046	     -0.49384075	      0.00815127	     -1.15109918	     -0.45856641	      0.00501576	     -0.87438831	     -0.42329207	      0.06270056	     -6.38557483	     -3.13896468	      0.00000000	      0.00000000	     19.44555498	      3.23506183	    -16.69891705	      0.53806044	    -25.41182561	     30.27882414	    144.15623553	     87.50183170	     24.61199901	     10.42690836	     12.26245626	    -13.27853734	    149.91971985	      9.72211635	     16.89791528	     -1.66411603	     -4.75157140
      5.36666667	     -2.22382625	     -5.65821913	     94.74724325	      0.17383583	      0.97839013	      0.30002431	     -5.31970399	     -3.28200254	     -4.41133881	      2.69962150	      0.04711728	     21.21731524	      1.77472402	      0.00000000	     -4.39745904	      0.95166051	     -9.42143469	      1.27287004	      0.02221577	     19.11209071	     14.99760610	      0.00000000	      0.00576836	     -0.57824604	     -0.59019487	      0.01071243	     -0.76906723	     -0.62708205	      0.00947684	     -1.40594742	     -0.62708205	      0.00659266	     -1.40594742	     -0.51642051	      0.00535650	     -1.17915932	     -0.47953333	      0.00329604	     -0.89570312	     -0.44264615	      0.04120283	     -6.54123485	     -3.28248680	      0.00000000	      0.00000000	     19.41558892	      3.09422066	    -16.93346168	      0.22157245	    -25.32257725	     29.53260322	    144.47188469	     87.44587766	     26.18772523	      9.97633939	     12.08068773	    -12.77883582	    158.69535035	      8.77626112	     10.05064887	     -0.23626290	     -5.02931487
      5.38333333	     -2.33931971	     -5.57327669	     94.76244011	      0.17327779	      0.97896264	      0.29882723	     -5.55021557	     -3.43921472	     -4.51154958	      2.86540518	      0.05001075	     20.76780526	      1.73256207	      0.00000000	     -4.57416547	      1.11624135	     -9.45883822	      1.23372769	      0.02153261	     19.13951780	     14.98893970	      0.00000000	      0.02069482	     -0.58510288	     -0.60573273	      0.03843235	     -0.77818683	     -0.64359103	      0.03399952	     -1.42261914	     -0.64359103	      0.02365211	     -1.42261914	     -0.53001614	      0.01921721	     -1.19314179	     -0.49215785	      0.01182502	     -0.90632436	     -0.45429955	      0.14782102	     -6.61880078	     -3.36890374	      0.00000000	      0.00000000	     19.39319695	      2.98528565	    -16.90718529	      0.21485051	    -25.54575185	     29.32918742	    144.90685553	     87.33817565	     26.23830687	      9.81992781	     11.86178361	    -12.79115841	    158.82724948	      8.89454590	     10.17163667	     -0.19147930	     -5.05058474
      5.40000000	     -2.57076648	     -5.25027522	     95.03371737	      0.17267236	      0.97982674	      0.29759614	     -6.21033065	     -3.61222217	     -4.46378428	      2.77050673	      0.04835446	     20.18816852	      0.93558114	      0.00000000	     -5.02967159	      1.32779426	     -9.15759704	      1.09359571	      0.01908685	     19.13513454	     15.15842206	      0.00000000	      0.00099742	     -0.61465438	     -0.58125231	      0.00185230	     -0.81749032	     -0.61758058	      0.00163866	     -1.49447065	     -0.61758058	      0.00113995	     -1.49447065	     -0.50859577	      0.00092620	     -1.25340321	     -0.47226750	      0.00056992	     -0.95209963	     -0.43593923	      0.00712445	     -6.95309325	     -3.23275098	      0.00000000	      0.00000000	     19.08571054	      2.15436856	    -18.07535676	      0.00106234	    -25.67632262	     28.59737665	    145.23773829	     87.19451318	     26.49782277	      8.89733549	     12.05206196	    -12.71796436	    160.83772259	      8.96011871	     11.99444135	     -0.11663253	     -5.30227556
      5.41666667	     -2.75454547	     -4.98476566	     94.86208288	      0.17267479	      0.98048728	      0.29654895	     -6.61840017	     -3.79505128	     -4.05908437	      2.89898102	      0.05059676	     19.83002103	      0.15806944	      0.00000000	     -5.41284101	      1.52243508	     -9.05561190	      0.99763337	      0.01741199	     19.29569765	     15.03043961	      0.00000000	      0.00156676	     -0.64113353	     -0.47485803	      0.00290963	     -0.85270759	     -0.50453666	      0.00257403	     -1.55885206	     -0.50453666	      0.00179065	     -1.55885206	     -0.41550078	      0.00145489	     -1.30739949	     -0.38582215	      0.00089525	     -0.99311584	     -0.35614352	      0.01119122	     -7.25263070	     -2.64101790	      0.00000000	      0.00000000	     18.76915796	      1.28462009	    -19.22737668	      0.11485833	    -25.92979596	     27.99947973	    145.65066728	     87.15552669	     26.30538579	      8.47646258	     12.20785712	    -12.65423000	    162.39829708	      9.18639805	     13.13659266	     -0.28347659	     -5.34362749
